<svg width="140" height="140" viewBox="0 0 140 140" fill="none" xmlns="http://www.w3.org/2000/svg">
<circle cx="70" cy="70" r="70" fill="#F7B654"/>
<mask id="mask0_411_908" style="mask-type:alpha" maskUnits="userSpaceOnUse" x="0" y="0" width="140" height="140">
<circle cx="70" cy="70" r="70" fill="#D9D9D9"/>
</mask>
<g mask="url(#mask0_411_908)">
<path d="M105.283 115.166C104.994 115.373 104.663 115.579 104.373 115.786C104.042 115.993 103.752 116.2 103.421 116.366C103.132 116.531 102.883 116.697 102.594 116.862C102.552 116.904 102.511 116.904 102.469 116.945C101.518 117.524 100.525 118.062 99.5315 118.559C99.2418 118.724 98.9108 118.89 98.6212 119.014C98.6212 119.014 98.5798 119.055 98.5384 119.055C98.2074 119.221 97.8763 119.386 97.5453 119.552C96.8832 119.883 96.1798 120.173 95.5177 120.462C95.1867 120.628 94.8143 120.752 94.4832 120.876C94.1522 121 93.7798 121.166 93.4487 121.29C93.1177 121.414 92.7453 121.579 92.4143 121.704C92.4143 121.704 92.4143 121.704 92.3729 121.704C92.0418 121.828 91.6694 121.952 91.3384 122.076C90.5936 122.324 89.8074 122.573 89.0625 122.821C88.8143 122.904 88.5246 122.986 88.2763 123.069C87.4901 123.317 86.7039 123.524 85.9177 123.69C85.6281 123.773 85.3384 123.814 85.0074 123.897C84.2625 124.062 83.4763 124.228 82.7315 124.393C82.566 124.435 82.4419 124.435 82.2763 124.476C82.0281 124.517 81.7384 124.559 81.4901 124.6C81.1177 124.641 80.7867 124.724 80.4143 124.766C80.2487 124.807 80.0832 124.807 79.9177 124.848C79.7108 124.89 79.4625 124.931 79.2143 124.931C78.5522 125.014 77.8487 125.097 77.1867 125.179C76.9798 125.221 76.7315 125.221 76.5246 125.262H76.4832C76.1936 125.304 75.9039 125.304 75.6143 125.345C75.3246 125.386 75.035 125.386 74.7453 125.386C74.5798 125.386 74.3729 125.428 74.2074 125.428C73.8763 125.428 73.5867 125.469 73.297 125.469C72.8832 125.469 72.5108 125.51 72.097 125.51C71.6832 125.51 71.3108 125.51 70.897 125.51C70.6074 125.51 70.3177 125.51 70.0281 125.51C52.6074 125.262 36.8832 117.855 25.7108 106.104C25.7108 106.104 25.7108 106.062 25.6694 106.062C26.9522 103.538 31.7108 98.9863 36.6763 95.2208C42.966 90.4622 51.8625 87.5243 51.8625 87.5243C51.8625 87.5243 57.697 86.5725 79.3384 91.0829C95.8487 94.5587 102.883 108.669 105.283 115.166Z" fill="#F1C7A4"/>
<path d="M83.9314 102.545C83.0624 106.807 77.4348 109.331 67.959 105.524C56.3314 100.807 51.8624 87.5242 51.8624 87.5242C51.2417 78.0069 49.7935 69.8552 49.7935 69.8552C63.2417 68.6966 79.1314 84.4207 79.1314 84.4207L80.9521 92.2C81.1176 92.8621 81.4486 93.4414 81.9452 93.8552C82.8141 95.3449 84.5107 99.8138 83.9314 102.545Z" fill="#F1C7A4"/>
<path d="M81.9452 93.8966C74.0417 93.4828 68.2073 92.3241 61.959 81.1104C67.2555 85.7862 73.5038 87.5655 80.0831 88.3931L80.9521 92.2C81.1176 92.9035 81.4486 93.4828 81.9452 93.8966Z" fill="#EFBDA5"/>
<path d="M98.2901 44.0345C99.0349 47.5104 99.4073 50.3242 97.3797 59.5931C95.3521 68.8621 99.2418 78.1311 89.4763 86.6138C82.897 92.3242 71.3935 93.4 62.2073 87.1518C59.1039 85.0414 56.2487 82.1035 53.9314 78.2552C52.1108 75.2345 50.0004 72.3793 47.6418 69.7724C44.3728 66.2138 40.4418 59.0552 42.3866 46.3931C45.5314 25.7862 65.9314 23.4276 77.9728 25.7035C90.0142 27.9793 96.2625 34.8483 98.2901 44.0345Z" fill="#F1C7A4"/>
<path d="M58.6902 60.2138C58.6902 60.2138 57.4074 54.0069 51.366 54.7517C46.1523 55.4138 44.3316 67.9104 56.166 71.3862" fill="#F1C7A4"/>
<path d="M87.3662 69.7311C87.3662 69.7311 88.9386 69.8139 90.4282 68.0346C91.2558 67.0415 91.9593 65.8001 91.5041 65.4277C91.0489 65.0139 83.5593 66.1725 83.0627 67.1656C82.5661 68.1587 85.4627 69.7311 87.3662 69.7311Z" fill="#EFBDA5"/>
<path d="M88.6073 55.8276C88.6073 55.8276 88.6901 59.7587 91.2142 64.1449C92.3315 66.0897 90.6349 69.2759 86.9521 69.8138" stroke="#423232" stroke-width="2" stroke-miterlimit="10" stroke-linecap="round" stroke-linejoin="round"/>
<path d="M99.2416 33.8964L95.1037 29.3447L89.9313 25.8274L83.9448 22.9309L75.8623 21.2757L67.5865 20.655L60.3451 21.6895L53.9313 23.7585L47.9313 27.6895L43.5865 33.2757C43.5865 33.2757 40.3024 39.8514 38.4902 46.4757C37.8695 57.6895 41.1799 64.9723 43.4144 68.5723C45.4006 72.1309 47.6351 74.6136 48.8764 76.8481C50.6558 80.0343 51.5247 83.5102 51.5247 83.5102C55.042 77.2205 55.0833 73.8274 55.0833 73.8274C44.7385 69.855 46.6006 58.3102 51.6489 57.6481C56.9454 56.9861 58.6006 61.7033 58.8902 62.8619C60.7937 60.5861 55.6213 45.8137 64.8075 42.2137C73.704 38.7378 79.2489 43.8688 88.7661 45.1516C91.7454 45.5654 94.5592 43.3723 96.7109 43.7447C97.373 43.8688 97.8695 44.3654 98.0764 45.0274C98.242 45.6481 98.4075 46.2688 98.573 46.9309C99.1523 49.455 103.586 39.2757 99.2416 33.8964Z" fill="#363636"/>
<path d="M109.464 107.667C103.588 100.094 94.4846 96.9496 89.4777 95.0875C89.0639 93.0185 88.2777 90.7427 87.0363 88.5496C85.1329 89.7082 82.9398 90.5772 80.6639 91.0323L80.9949 92.3979C81.1605 93.0599 81.988 96.122 80.7053 100.053C79.6294 103.363 75.2846 104.853 67.9191 101.501C53.5605 95.0048 51.9053 87.6806 51.9053 87.6806C51.657 83.7082 51.2432 79.9841 50.8708 76.9634C46.4018 77.9565 41.2294 79.9841 38.4156 84.2461C34.9398 89.4599 33.657 94.7565 33.988 98.9772C27.9467 102.825 18.5949 108.66 15.5329 119.088C11.5605 132.66 12.2225 140.977 12.2225 140.977H119.147C119.023 141.019 117.45 117.97 109.464 107.667Z" fill="white"/>
<path d="M45.5327 94.0945C45.5327 94.0945 48.0569 103.901 59.1051 110.688" stroke="#645959" stroke-width="2" stroke-miterlimit="10" stroke-linecap="round" stroke-linejoin="round"/>
<path d="M89.4363 95.0874C89.4363 95.0874 92.3742 107.791 85.9604 113.625" stroke="#645959" stroke-width="2" stroke-miterlimit="10" stroke-linecap="round" stroke-linejoin="round"/>
<path d="M69.4913 111.681C69.4913 111.681 67.3395 117.97 67.9188 122.315" stroke="#645959" stroke-width="2" stroke-miterlimit="10" stroke-linecap="round" stroke-linejoin="round"/>
<path d="M82.6914 111.308C82.6914 111.308 84.3052 114.825 85.4638 120.412" stroke="#645959" stroke-width="2" stroke-miterlimit="10" stroke-linecap="round" stroke-linejoin="round"/>
<path d="M33.9053 99.0186C33.9053 99.0186 37.2984 112.839 57.4915 116.894" stroke="#645959" stroke-width="2" stroke-miterlimit="10" stroke-linecap="round" stroke-linejoin="round"/>
<path d="M68.2913 123.267L66.4706 123.101C65.8085 123.019 65.312 122.398 65.4361 121.736L66.0568 118.632C66.2223 117.763 67.0499 117.143 67.9189 117.267C68.7878 117.35 69.4913 118.094 69.4913 119.005L69.5326 122.191C69.5326 122.812 68.9533 123.35 68.2913 123.267Z" fill="#E75555"/>
<path d="M87.2846 121.363L85.5467 121.984C84.8846 122.232 84.1811 121.818 84.057 121.156L83.3122 118.094C83.1053 117.225 83.5605 116.356 84.4294 116.025C85.257 115.736 86.2087 116.108 86.5811 116.894L87.9467 119.749C88.2363 120.37 87.9467 121.115 87.2846 121.363Z" fill="#E75555"/>
<path d="M32.4981 141.018C32.4981 141.018 32.1257 131.791 30.8843 129.308" stroke="#544D4D" stroke-width="2" stroke-miterlimit="10" stroke-linecap="round" stroke-linejoin="round"/>
<path d="M105.533 120.412C105.533 120.412 107.85 133.405 106.94 141.019" stroke="#645959" stroke-width="2" stroke-miterlimit="10" stroke-linecap="round" stroke-linejoin="round"/>
<path d="M98.8706 132.908C98.8706 132.908 92.7465 133.819 87.3672 133.57" stroke="#645959" stroke-width="2" stroke-miterlimit="10" stroke-linecap="round" stroke-linejoin="round"/>
<path d="M77.3105 76.9556C78.7669 78.8195 82.5921 82.0207 86.2421 79.9134" stroke="#423232" stroke-width="2" stroke-linecap="round"/>
<path d="M76.2484 63.9163C75.2553 63.8749 74.5104 63.0473 74.5932 62.0542L74.6346 60.8956C74.676 59.9025 75.5035 59.1577 76.4966 59.2404C77.4897 59.2818 78.2346 60.1094 78.1518 61.1025L78.1104 62.2611C78.0691 63.2128 77.2415 63.9577 76.2484 63.9163Z" fill="#312B2A"/>
<path d="M93.6689 64.5369C92.7585 64.4955 92.0551 63.7093 92.0965 62.7989L92.1378 61.7231C92.1792 60.8127 92.9654 60.1093 93.8758 60.1507C94.7861 60.192 95.4896 60.9782 95.4482 61.8886L95.4068 62.9645C95.3654 63.8748 94.5792 64.5783 93.6689 64.5369Z" fill="#312B2A"/>
<path d="M80.2619 61.5163C80.2619 61.5163 79.1861 59.9853 77.324 59.6956C75.793 59.4473 74.0964 60.1922 73.8481 61.0611" fill="#312B2A"/>
<path d="M80.2619 61.5163C80.2619 61.5163 79.1861 59.9853 77.324 59.6956C75.793 59.4473 74.0964 60.1922 73.8481 61.0611" stroke="#423232" stroke-width="2" stroke-miterlimit="10" stroke-linecap="round" stroke-linejoin="round"/>
<path d="M92.4688 61.8886C92.4688 61.8886 92.4688 60.5645 94.3722 60.5645C95.9446 60.5645 96.6067 62.0127 96.6067 62.0127" fill="#312B2A"/>
<path d="M92.4688 61.8886C92.4688 61.8886 92.4688 60.5645 94.3722 60.5645C95.9446 60.5645 96.6067 62.0127 96.6067 62.0127" stroke="#423232" stroke-width="2" stroke-miterlimit="10" stroke-linecap="round" stroke-linejoin="round"/>
<path d="M81.9587 54.8542C82.8276 55.1439 83.6966 54.3577 83.5311 53.4059C83.4483 52.9094 83.2414 52.4128 82.8276 52.0404C81.5862 50.9232 76.4552 49.9301 73.3518 51.3784C70.6207 52.7025 77.9863 53.5301 81.9587 54.8542Z" fill="#312B2A"/>
<path d="M94.331 55.5163C93.6275 55.7646 92.8827 55.0198 93.0068 54.1508C93.0482 53.6957 93.2137 53.2405 93.5448 52.9094C94.5379 51.9163 97.931 51.1301 100.083 52.6612C101.945 53.9439 97.5585 54.3163 94.331 55.5163Z" fill="#312B2A"/>
</g>
</svg>
